<svg xmlns="http://www.w3.org/2000/svg" version="1.1" viewBox="10 -20.0 110.0 135.0">
    <defs>
        <style type="text/css">
            .fil0 {fill:#EF9D00;fill-rule:nonzero}
        </style>
    </defs>
    <g>
        <path class='fil0' d="m69.461 64.895 15.77-15.77-6.8359-6.8359-23.824 23.824-1.0703 7.9062 7.9062-1.0703zm19.016-19.016 4.957-4.957-6.8359-6.8359-4.957 4.957zm-15.086 21.578v17.684c0 2.7109-1.1055 5.168-2.8906 6.9492-1.7812 1.7812-4.2461 2.8906-6.9492 2.8906h-52.676c-2.7109 0-5.168-1.1055-6.9492-2.8906-1.7812-1.7812-2.8906-4.2461-2.8906-6.9492v-70.285c0-2.7109 1.1055-5.168 2.8906-6.9492 1.7812-1.7812 4.2422-2.8906 6.9492-2.8906h52.676c2.7109 0 5.168 1.1055 6.9492 2.8906 1.7812 1.7812 2.8906 4.2461 2.8906 6.9492v25.949l11.586-11.586c0.89844-0.89844 2.3477-0.89844 3.2461 0l10.078 10.078c0.89844 0.89453 0.89844 2.3477 0 3.2461l-24.914 24.914zm-4.5898-22.055v-30.543c0-1.4414-0.58984-2.7539-1.5469-3.7031-0.94922-0.94922-2.2656-1.5469-3.7031-1.5469h-52.676c-1.4414 0-2.7539 0.58984-3.7031 1.5469-0.95312 0.94922-1.5469 2.2656-1.5469 3.7031v70.285c0 1.4414 0.58984 2.7539 1.5469 3.7031 0.94922 0.94922 2.2656 1.5469 3.7031 1.5469h52.676c1.4414 0 2.7539-0.58984 3.7031-1.5469 0.94922-0.94922 1.5469-2.2656 1.5469-3.7031v-13.094l-4.6875 4.6875c-0.41406 0.41016-0.94531 0.63672-1.4805 0.66797l-11.492 1.5586c-1.25 0.16797-2.4062-0.71094-2.5742-1.9609-0.03125-0.22266-0.027344-0.44531 0.007813-0.65234l1.5742-11.617c0.070312-0.51562 0.30469-0.97266 0.65234-1.3125l-0.003906-0.007813 18.008-18.008zm-49.684 14.094c-1.2695 0-2.2969-1.0273-2.2969-2.2969 0-1.2656 1.0273-2.2969 2.2969-2.2969h19.285c1.2656 0 2.2969 1.0273 2.2969 2.2969 0 1.2656-1.0273 2.2969-2.2969 2.2969zm0-16.488c-1.2695 0-2.2969-1.0273-2.2969-2.2969 0-1.2695 1.0273-2.2969 2.2969-2.2969h36.188c1.2656 0 2.2969 1.0273 2.2969 2.2969 0 1.2656-1.0273 2.2969-2.2969 2.2969zm0-16.488c-1.2695 0-2.2969-1.0273-2.2969-2.2969 0-1.2656 1.0273-2.2969 2.2969-2.2969h36.188c1.2656 0 2.2969 1.0273 2.2969 2.2969 0 1.2695-1.0273 2.2969-2.2969 2.2969z"/>
    </g>
</svg>