<svg xmlns="http://www.w3.org/2000/svg" xmlns:xlink="http://www.w3.org/1999/xlink" xml:space="preserve" version="1.1" style="shape-rendering:geometricPrecision;text-rendering:geometricPrecision;image-rendering:optimizeQuality;" viewBox="0 0 333.33 376.66" x="0px" y="0px" fill-rule="evenodd" clip-rule="evenodd">
  <defs>
    <style type="text/css">
      .fil0 {fill:#4C00FF;fill-rule:nonzero}
    </style>
  </defs>
  <g>
    <path class="fil0" d="M132.58 322.83c-29.81,7.99 -59.2,-5.05 -65.65,-29.13 -6.45,-24.07 12.48,-50.07 42.29,-58.05 18.16,-4.87 36.16,-1.93 48.92,6.55l0 -224.92c0,-5.05 4.09,-9.14 9.14,-9.14 4.09,0 7.56,2.69 8.72,6.4 1.48,3.75 14.19,33.41 56.36,61 7.33,4.8 13.37,10.19 18.27,15.98 12.56,14.86 17.36,32.09 17.01,48.67 -0.35,16.34 -5.74,32.02 -13.61,44.06 -3.68,5.62 -7.94,10.52 -12.55,14.41 -3.85,3.26 -9.6,2.78 -12.86,-1.07 -3.25,-3.85 -2.77,-9.6 1.07,-12.86 3.23,-2.73 6.31,-6.3 9.05,-10.48 6.19,-9.45 10.42,-21.7 10.69,-34.42 0.26,-12.47 -3.32,-25.41 -12.72,-36.53 -3.77,-4.46 -8.5,-8.66 -14.34,-12.48 -21.38,-13.99 -36.09,-28.83 -45.94,-41.26l0 222.03c0,26.06 -19.86,44.81 -43.84,51.24z"/>
  </g>
</svg>